HIERARCHY
ROOT Hips
{
    OFFSET   0.000000   0.000000   0.000000
    CHANNELS 6 Xposition Yposition Zposition Zrotation Xrotation Yrotation
    JOINT Chest
    {
        OFFSET   0.000000   8.007240   0.000000
        CHANNELS 3 Zrotation Xrotation Yrotation
        JOINT Chest2
        {
            OFFSET   0.000000  22.077100   0.000000
            CHANNELS 3 Zrotation Xrotation Yrotation
            JOINT Neck
            {
                OFFSET   0.000000  23.254800   0.000000
                CHANNELS 3 Zrotation Xrotation Yrotation
                JOINT Head
                {
                    OFFSET   0.000000  14.370000   1.956600
                    CHANNELS 3 Zrotation Xrotation Yrotation
                    End Site
                    {
                        OFFSET   0.000000  19.566000   0.000000
                    }
                }
            }
            JOINT LeftCollar
            {
                OFFSET   3.911900  19.017000  -0.467064
                CHANNELS 3 Zrotation Xrotation Yrotation
                JOINT LeftShoulder
                {
                    OFFSET  10.383700   0.000000   0.000000
                    CHANNELS 3 Zrotation Xrotation Yrotation
                    JOINT LeftElbow
                    {
                        OFFSET  26.662100   0.001476   0.000517
                        CHANNELS 3 Zrotation Xrotation Yrotation
                        JOINT LeftWrist
                        {
                            OFFSET  28.869000  -0.000025  -0.000106
                            CHANNELS 3 Zrotation Xrotation Yrotation
                            JOINT LeftFinger0
                            {
                                OFFSET   2.044660  -2.323460   3.252850
                                CHANNELS 3 Zrotation Xrotation Yrotation
                                JOINT LeftFinger01
                                {
                                    OFFSET   3.088130   0.000000   0.000000
                                    CHANNELS 3 Zrotation Xrotation Yrotation
                                    JOINT LeftFinger02
                                    {
                                        OFFSET   2.639460   0.000000   0.000000
                                        CHANNELS 3 Zrotation Xrotation Yrotation
                                        End Site
                                        {
                                            OFFSET   2.582190   0.000000   0.000000
                                        }
                                    }
                                }
                            }
                            JOINT LeftFinger1
                            {
                                OFFSET   8.364480   0.000000   3.252850
                                CHANNELS 3 Zrotation Xrotation Yrotation
                                JOINT LeftFinger11
                                {
                                    OFFSET   4.646930   0.000000   0.000000
                                    CHANNELS 3 Zrotation Xrotation Yrotation
                                    JOINT LeftFinger12
                                    {
                                        OFFSET   2.323460   0.000000   0.000000
                                        CHANNELS 3 Zrotation Xrotation Yrotation
                                        End Site
                                        {
                                            OFFSET   2.273050   0.000000   0.000000
                                        }
                                    }
                                }
                            }
                            JOINT LeftFinger2
                            {
                                OFFSET   8.364490   0.000015   1.078090
                                CHANNELS 3 Zrotation Xrotation Yrotation
                                JOINT LeftFinger21
                                {
                                    OFFSET   5.111620   0.000000   0.000000
                                    CHANNELS 3 Zrotation Xrotation Yrotation
                                    JOINT LeftFinger22
                                    {
                                        OFFSET   2.788160   0.000016   0.000000
                                        CHANNELS 3 Zrotation Xrotation Yrotation
                                        End Site
                                        {
                                            OFFSET   2.727660   0.000000   0.000000
                                        }
                                    }
                                }
                            }
                            JOINT LeftFinger3
                            {
                                OFFSET   7.899780   0.000017  -1.078090
                                CHANNELS 3 Zrotation Xrotation Yrotation
                                JOINT LeftFinger31
                                {
                                    OFFSET   4.646930   0.000000   0.000000
                                    CHANNELS 3 Zrotation Xrotation Yrotation
                                    JOINT LeftFinger32
                                    {
                                        OFFSET   2.323470   0.000000   0.000000
                                        CHANNELS 3 Zrotation Xrotation Yrotation
                                        End Site
                                        {
                                            OFFSET   2.273050   0.000000   0.000000
                                        }
                                    }
                                }
                            }
                            JOINT LeftFinger4
                            {
                                OFFSET   7.435090   0.000000  -3.252850
                                CHANNELS 3 Zrotation Xrotation Yrotation
                                JOINT LeftFinger41
                                {
                                    OFFSET   3.717550   0.000000   0.000000
                                    CHANNELS 3 Zrotation Xrotation Yrotation
                                    JOINT LeftFinger42
                                    {
                                        OFFSET   1.858770   0.000000   0.000000
                                        CHANNELS 3 Zrotation Xrotation Yrotation
                                        End Site
                                        {
                                            OFFSET   1.818440   0.000000   0.000000
                                        }
                                    }
                                }
                            }
                        }
                    }
                }
            }
            JOINT RightCollar
            {
                OFFSET  -3.911900  19.017000  -0.467063
                CHANNELS 3 Zrotation Xrotation Yrotation
                JOINT RightShoulder
                {
                    OFFSET -10.383700   0.000019   0.000000
                    CHANNELS 3 Zrotation Xrotation Yrotation
                    JOINT RightElbow
                    {
                        OFFSET -26.662100   0.001175   0.000102
                        CHANNELS 3 Zrotation Xrotation Yrotation
                        JOINT RightWrist
                        {
                            OFFSET -28.869000   0.000016  -0.000079
                            CHANNELS 3 Zrotation Xrotation Yrotation
                            JOINT RightFinger0
                            {
                                OFFSET  -2.044660  -2.323490   3.252850
                                CHANNELS 3 Zrotation Xrotation Yrotation
                                JOINT RightFinger01
                                {
                                    OFFSET  -3.088140   0.000000   0.000000
                                    CHANNELS 3 Zrotation Xrotation Yrotation
                                    JOINT RightFinger02
                                    {
                                        OFFSET  -2.639460   0.000000   0.000000
                                        CHANNELS 3 Zrotation Xrotation Yrotation
                                        End Site
                                        {
                                            OFFSET  -2.582190   0.000000   0.000000
                                        }
                                    }
                                }
                            }
                            JOINT RightFinger1
                            {
                                OFFSET  -8.364480   0.000000   3.252850
                                CHANNELS 3 Zrotation Xrotation Yrotation
                                JOINT RightFinger11
                                {
                                    OFFSET  -4.646930   0.000000   0.000000
                                    CHANNELS 3 Zrotation Xrotation Yrotation
                                    JOINT RightFinger12
                                    {
                                        OFFSET  -2.323470   0.000000   0.000000
                                        CHANNELS 3 Zrotation Xrotation Yrotation
                                        End Site
                                        {
                                            OFFSET  -2.273050   0.000000   0.000000
                                        }
                                    }
                                }
                            }
                            JOINT RightFinger2
                            {
                                OFFSET  -8.364480   0.000000   1.078090
                                CHANNELS 3 Zrotation Xrotation Yrotation
                                JOINT RightFinger21
                                {
                                    OFFSET  -5.111620   0.000000   0.000000
                                    CHANNELS 3 Zrotation Xrotation Yrotation
                                    JOINT RightFinger22
                                    {
                                        OFFSET  -2.788160   0.000000   0.000000
                                        CHANNELS 3 Zrotation Xrotation Yrotation
                                        End Site
                                        {
                                            OFFSET  -2.727660   0.000000   0.000000
                                        }
                                    }
                                }
                            }
                            JOINT RightFinger3
                            {
                                OFFSET  -7.899780   0.000000  -1.078090
                                CHANNELS 3 Zrotation Xrotation Yrotation
                                JOINT RightFinger31
                                {
                                    OFFSET  -4.646930   0.000000   0.000000
                                    CHANNELS 3 Zrotation Xrotation Yrotation
                                    JOINT RightFinger32
                                    {
                                        OFFSET  -2.323470   0.000000   0.000000
                                        CHANNELS 3 Zrotation Xrotation Yrotation
                                        End Site
                                        {
                                            OFFSET  -2.273050   0.000000   0.000000
                                        }
                                    }
                                }
                            }
                            JOINT RightFinger4
                            {
                                OFFSET  -7.435090   0.000000  -3.252850
                                CHANNELS 3 Zrotation Xrotation Yrotation
                                JOINT RightFinger41
                                {
                                    OFFSET  -3.717550   0.000000   0.000000
                                    CHANNELS 3 Zrotation Xrotation Yrotation
                                    JOINT RightFinger42
                                    {
                                        OFFSET  -1.858770   0.000000   0.000000
                                        CHANNELS 3 Zrotation Xrotation Yrotation
                                        End Site
                                        {
                                            OFFSET  -1.818440   0.000000   0.000000
                                        }
                                    }
                                }
                            }
                        }
                    }
                }
            }
        }
    }
    JOINT LeftHip
    {
        OFFSET   9.783040   0.000000   0.000000
        CHANNELS 3 Zrotation Xrotation Yrotation
        JOINT LeftKnee
        {
            OFFSET   0.000032 -41.789100  -0.002222
            CHANNELS 3 Zrotation Xrotation Yrotation
            JOINT LeftAnkle
            {
                OFFSET   0.000087 -41.133200  -0.000135
                CHANNELS 3 Zrotation Xrotation Yrotation
                JOINT LeftToe
                {
                    OFFSET   0.000000  -6.358960  14.674500
                    CHANNELS 3 Zrotation Xrotation Yrotation
                    End Site
                    {
                        OFFSET   0.000000   0.000000   3.913200
                    }
                }
            }
        }
    }
    JOINT RightHip
    {
        OFFSET  -9.783040   0.000000   0.000000
        CHANNELS 3 Zrotation Xrotation Yrotation
        JOINT RightKnee
        {
            OFFSET   0.000047 -41.789100  -0.000896
            CHANNELS 3 Zrotation Xrotation Yrotation
            JOINT RightAnkle
            {
                OFFSET  -0.000117 -41.133300  -0.000248
                CHANNELS 3 Zrotation Xrotation Yrotation
                JOINT RightToe
                {
                    OFFSET   0.000000  -6.358970  14.674500
                    CHANNELS 3 Zrotation Xrotation Yrotation
                    End Site
                    {
                        OFFSET   0.000000   0.000000   3.913200
                    }
                }
            }
        }
    }
}
MOTION
Frames: 4
Frame Time:   0.016667
  0.745907  89.536200   0.596279  -1.724690  -1.511740  -1.560410   0.860267   0.925023  -0.921418   1.735630   1.835990  -1.856960   1.043950   0.022165   0.002242   1.721010   0.044620   5.809690  -2.637110   2.428420   1.108250 -75.345600  13.213100  -4.420920  -2.172140  -3.137450  -8.876290   7.261220  -8.072380  14.789900  39.216700  28.183600 -59.626400 -27.410400   0.000000   0.000065  -8.705200   0.003231   0.000000 -33.197800   6.274860  -9.469190 -27.578400  -0.007791  -0.004492 -19.302700   0.007436  -0.002874 -28.398300   3.244210  -5.975810 -36.949700  -0.006380  -0.000276 -24.608200  -0.004164   0.000796 -28.430900   0.387579  -0.715870 -35.439600  -0.000658   0.007343 -23.602800  -0.006317   0.002137 -34.776800   0.285317  -0.422637 -52.166800  -0.000464   0.002872 -34.743100  -0.006801   0.007041   4.061690   1.300460   5.972960  75.344400   3.030700   0.670399   1.499360  -4.037200   6.282030 -11.269600 -10.317100   3.901470 -39.401900  32.120900  65.700400  29.300300   0.001340  -0.000734   9.650160   0.000851   0.004863  30.572700   7.115230  11.836400  25.618500  -0.001511  -0.000323  17.933000   0.000799  -0.000692  28.158400   4.801360   8.891130  36.367100   0.000230   0.001301  24.220500  -0.002734   0.003742  28.611100   3.012140   5.504030  40.180700   0.003807  -0.001330  26.760400   0.001326  -0.001828  36.947500  -0.247407  -0.317276  55.422300   0.000628  -0.012061  36.911300   0.004518  -0.014196   0.770361   5.054960   0.551974   0.778388   0.753264  10.789100  -1.498550  -3.488050   2.797880  -0.000000   0.000000  -0.000000   0.669774  -0.351203  -1.505850   1.154460   4.887670  -4.605680  -4.218880  -2.414970  -1.756760   0.000000   0.000000  -0.000000
  0.740574  89.536200   0.596286  -1.724530  -1.538420  -1.527480   0.860284   0.929981  -0.918430   1.735680   1.845950  -1.851100   1.051900   0.009190   0.002253   1.729990   0.018533   5.794660  -2.643050   2.426850   1.108230 -75.354600  13.212900  -4.419570  -2.170970  -3.129970  -8.876230   7.258590  -8.064470  14.789600  39.219600  28.199400 -59.634600 -27.419800   0.000000   0.000032  -8.709900   0.003203   0.000000 -33.191800   6.274700  -9.478030 -27.578400  -0.007817  -0.004486 -19.302500   0.007455  -0.002865 -28.399900   3.236610  -5.961610 -36.955300  -0.006378  -0.000272 -24.612100  -0.004169   0.000806 -28.431500   0.371376  -0.685902 -35.455700  -0.000633   0.007368 -23.613500  -0.006307   0.002137 -34.788400   0.285247  -0.422766 -52.184200  -0.000440   0.002870 -34.754700  -0.006828   0.007058   4.065620   1.296220   5.979020  75.328700   3.068180   0.684489   1.481810  -4.058520   6.292670 -11.292100 -10.325200   3.880090 -39.395500  32.118200  65.697600  29.314300   0.001282  -0.000666   9.657160   0.000826   0.004863  30.580600   7.116030  11.832900  25.625000  -0.001532  -0.000320  17.937500   0.000717  -0.000616  28.158300   4.801360   8.891130  36.382900   0.000199   0.001276  24.231100  -0.002795   0.003831  28.611100   3.012140   5.504030  40.203200   0.003823  -0.001336  26.775400   0.001385  -0.001833  36.955300  -0.247322  -0.319216  55.434000   0.000575  -0.012077  36.919100   0.004488  -0.014228   0.769963   5.102340   0.549757   0.777007   0.705994  10.770800  -1.496340  -3.463260   2.786010  -0.000000   0.000000   0.000000   0.670811  -0.283946  -1.512700   1.157130   4.867980  -4.615120  -4.224080  -2.427140  -1.774940  -0.000000   0.000000   0.000000
  0.730880  89.536200   0.596333  -1.724180  -1.582870  -1.471940   0.860373   0.939535  -0.915443   1.736010   1.865100  -1.845250   1.059850  -0.015090   0.002264   1.741260  -0.030434   5.770610  -2.656380   2.419750   1.108200 -75.368400  13.212700  -4.413610  -2.169800  -3.122490  -8.876150   7.251640  -8.052190  14.789200  39.221900  28.226000 -59.648800 -27.439100   0.000000   0.000000  -8.719580   0.003170   0.000000 -33.185800   6.274540  -9.486880 -27.578400  -0.007885  -0.004469 -19.302200   0.007504  -0.002845 -28.402700   3.223190  -5.936660 -36.960800  -0.006374  -0.000261 -24.615900  -0.004183   0.000830 -28.432300   0.345677  -0.638387 -35.471800  -0.000570   0.007431 -23.624200  -0.006284   0.002138 -34.800000   0.285098  -0.422946 -52.201600  -0.000379   0.002867 -34.766300  -0.006897   0.007102   4.072960   1.283110   5.989810  75.299200   3.129370   0.698596   1.455470  -4.094710   6.309430 -11.325000 -10.337800   3.848930 -39.384000  32.113500  65.692000  29.335400   0.001159  -0.000555   9.667730   0.000771   0.004864  30.592800   7.116920  11.825700  25.634800  -0.001567  -0.000313  17.944300   0.000536  -0.000445  28.158200   4.801360   8.891130  36.409300   0.000139   0.001222  24.248600  -0.002925   0.004031  28.611100   3.012140   5.504030  40.236600   0.003856  -0.001346  26.797600   0.001509  -0.001845  36.967100  -0.247179  -0.322165  55.451600   0.000488  -0.012107  36.930800   0.004422  -0.014294   0.769513   5.167750   0.545223   0.775753   0.658749  10.738800  -1.494520  -3.438490   2.767340   0.000000   0.000000   0.000000   0.671334  -0.215405  -1.524800   1.160310   4.848240  -4.630590  -4.233250  -2.448090  -1.806030   0.000000   0.000000  -0.000000
  0.721368  89.536200   0.596454  -1.718770  -1.618230  -1.425820   0.861208   0.950110  -0.915479   1.737890   1.886240  -1.845380   1.059780  -0.040379   0.002252   1.743700  -0.081734   5.754250  -2.675320   2.404550   1.108250 -75.372900  13.247500  -4.401750  -2.171850  -3.136390  -8.874160   7.239290  -8.045820  14.794100  39.217000  28.253300 -59.665200 -27.466000  -0.000050   0.000000  -8.732610   0.003167  -0.000000 -33.188400   6.267250  -9.475520 -27.578800  -0.007988  -0.004442 -19.303600   0.007578  -0.002817 -28.405900   3.207560  -5.907840 -36.955000  -0.006369  -0.000241 -24.612000  -0.004203   0.000868 -28.432700   0.323896  -0.598168 -35.464000  -0.000473   0.007528 -23.619000  -0.006250   0.002139 -34.794800   0.284894  -0.423023 -52.193700  -0.000287   0.002864 -34.761000  -0.007002   0.007169   4.080240   1.258620   5.998900  75.266700   3.175560   0.696859   1.440790  -4.125370   6.323210 -11.340600 -10.345400   3.834660 -39.373800  32.111700  65.683100  29.346500   0.000995  -0.000470   9.673240   0.000695   0.004867  30.602100   7.112750  11.818200  25.641000  -0.001604  -0.000302  17.948700   0.000283  -0.000197  28.159100   4.798440   8.885110  36.431400   0.000055   0.001145  24.263300  -0.003091   0.004312  28.612000   3.007460   5.495330  40.253900   0.003902  -0.001357  26.809100   0.001674  -0.001866  36.973800  -0.247034  -0.323866  55.461700   0.000404  -0.012147  36.937500   0.004329  -0.014385   0.769741   5.186980   0.538164   0.776055   0.694330  10.711100  -1.501160  -3.453850   2.753300  -0.000000   0.000000   0.000000   0.669837  -0.214548  -1.536510   1.161480   4.887040  -4.643620  -4.241680  -2.466480  -1.831420   0.000000   0.000000   0.000000
